# Blender v2.79 (sub 0) OBJ File: 'enemyShip.blend'
# www.blender.org
mtllib enemyShip_v2.mtl
o enemySHip_RetopoGroup1.001
v 0.336310 -0.271863 -0.613211
v 1.231367 -0.122203 -0.428033
v 1.212189 0.226965 -0.446258
v 0.936443 0.549628 0.229766
v 1.281640 -0.049330 0.395842
v 0.150551 0.200372 -0.311398
v -0.033466 0.595799 0.365661
v 0.296704 -0.076119 0.591151
v -0.210091 -0.260117 0.676662
v -0.843868 0.437426 0.222218
v -0.864597 0.509571 -0.021665
v -1.181288 -0.242278 0.268128
v -1.451901 0.009206 0.096277
v 1.551324 -0.138804 -0.193362
v -1.332033 -0.015667 -0.206317
v -0.647707 -0.094620 -0.439123
v 0.715935 -0.455432 0.591484
v -0.456925 -0.557592 -0.046640
v 1.811965 0.182331 0.039530
v 1.480132 0.280515 -0.171930
v 0.638851 -0.649063 -0.301075
v -1.387792 -0.288225 0.072545
v 0.958825 0.040776 0.556472
v 0.185138 -0.684837 -0.291897
v 1.283187 -0.100873 0.196500
v 0.572852 0.686580 -0.234176
v 1.690325 0.022830 0.242706
v -1.067494 -0.238735 -0.336442
v -0.412221 -0.487120 0.366059
v 0.607135 0.223733 -0.586589
v -0.827693 0.147373 0.478118
v -0.572160 0.634126 -0.343191
v 0.450505 0.042133 0.243617
v 0.178563 0.014985 -0.626792
v 1.241729 -0.468707 -0.034638
v -1.673661 -0.272731 0.841802
v -1.407397 -0.476393 1.142792
v 2.690826 -0.233891 0.774528
v 1.441616 -0.558655 1.337037
v -1.686437 -0.377778 0.964762
v 2.063096 -0.403666 1.068588
v 0.919563 -0.356240 0.962883
v -0.609126 -0.356240 0.962883
v -0.457726 -0.639342 1.476791
v 0.491945 -0.639342 1.476791
v -0.565666 -0.471651 1.320368
v 0.922195 -0.439008 1.263827
v -1.673661 -0.592656 0.657093
v -1.407397 -0.751491 0.983964
v 2.690826 -0.553816 0.589819
v 1.441616 -0.878580 1.152328
v -2.016519 -0.217314 0.376399
v -1.785330 -0.611585 1.059296
v 3.219763 -0.349606 0.605536
v 1.694123 -0.758038 1.312960
v -1.686437 -0.646619 0.809546
v 2.063096 -0.723592 0.883879
v 2.453126 -0.556951 0.964667
v -1.979406 -0.501835 0.869204
v 0.919563 -0.655761 0.789954
v -0.609126 -0.655761 0.789954
v -0.457726 -0.959267 1.292082
v 0.491945 -0.959267 1.292082
v -0.625513 -0.844778 1.463198
v 0.534305 -0.844778 1.463198
v 0.942551 -0.473069 0.819380
v -0.627256 -0.473069 0.819380
v -0.565666 -0.907647 1.068646
v 0.922195 -0.875003 1.012105
v -1.673661 0.865387 -0.184709
v -1.407397 1.227883 -0.158828
v 2.690826 0.787706 -0.184709
v 1.441616 1.437235 -0.184709
v -1.686437 1.024397 -0.155215
v 2.063096 1.127258 -0.184709
v 0.919563 1.012001 -0.172929
v -0.609126 1.012001 -0.172929
v -0.457726 1.598609 -0.184709
v 0.491945 1.598609 -0.184709
v -0.565666 1.379298 -0.251722
v 0.922195 1.314010 -0.251722
v -1.673661 0.865387 0.184709
v -1.407397 1.227883 0.158828
v 2.690826 0.787706 0.184709
v 1.441616 1.437235 0.184709
v -2.016519 0.434629 0.000000
v -1.785330 1.223169 0.000000
v 3.219763 0.699213 0.000000
v 1.694123 1.516076 0.000000
v -1.686437 1.024397 0.155216
v 2.063096 1.127258 0.184709
v 2.453126 1.113901 0.000000
v -1.979406 1.003670 0.000000
v 0.919563 1.012001 0.172929
v -0.609126 1.012001 0.172929
v -0.457726 1.598609 0.184709
v 0.491945 1.598609 0.184709
v -0.625513 1.689555 0.000000
v 0.534305 1.689555 0.000000
v 0.942551 0.946139 0.000000
v -0.627256 0.946139 0.000000
v -0.565666 1.379298 0.251722
v 0.922195 1.314010 0.251722
v -1.673661 -0.592656 -0.657093
v -1.407397 -0.751491 -0.983964
v 2.690826 -0.553816 -0.589819
v 1.441616 -0.878580 -1.152328
v -1.686437 -0.646619 -0.809546
v 2.063096 -0.723591 -0.883879
v 0.919563 -0.655761 -0.789954
v -0.609126 -0.655761 -0.789954
v -0.457726 -0.959267 -1.292082
v 0.491945 -0.959267 -1.292082
v -0.565666 -0.907647 -1.068646
v 0.922195 -0.875003 -1.012105
v -1.673661 -0.272731 -0.841802
v -1.407397 -0.476393 -1.142792
v 2.690826 -0.233890 -0.774528
v 1.441616 -0.558655 -1.337036
v -2.016519 -0.217314 -0.376399
v -1.785330 -0.611585 -1.059296
v 3.219763 -0.349606 -0.605536
v 1.694123 -0.758038 -1.312960
v -1.686437 -0.377778 -0.964762
v 2.063096 -0.403666 -1.068588
v 2.453126 -0.556951 -0.964667
v -1.979406 -0.501835 -0.869204
v 0.919563 -0.356240 -0.962883
v -0.609126 -0.356240 -0.962883
v -0.457726 -0.639342 -1.476790
v 0.491945 -0.639342 -1.476790
v -0.625513 -0.844778 -1.463198
v 0.534305 -0.844778 -1.463198
v 0.942551 -0.473069 -0.819380
v -0.627256 -0.473069 -0.819380
v -0.565666 -0.471651 -1.320368
v 0.922195 -0.439008 -1.263827
vt 0.322174 0.308359
vt 0.239700 0.350472
vt 0.252136 0.244522
vt 0.196148 0.244522
vt 0.128534 0.327187
vt 0.209118 0.190202
vt 0.240986 0.143247
vt 0.302560 0.180044
vt 0.276067 0.467278
vt 0.158312 0.461544
vt 0.219365 0.419764
vt 0.151835 0.365918
vt 0.060550 0.161291
vt 0.036529 0.136944
vt 0.107092 0.153452
vt 0.042769 0.351148
vt 0.000226 0.376174
vt 0.010557 0.337717
vt 0.300138 0.145063
vt 0.349835 0.182853
vt 0.323187 0.363349
vt 0.306751 0.383134
vt 0.351872 0.394934
vt 0.339024 0.131732
vt 0.004937 0.170120
vt 0.000226 0.129290
vt 0.071629 0.432029
vt 0.054065 0.456314
vt 0.086244 0.391025
vt 0.193334 0.123203
vt 0.120107 0.064112
vt 0.246580 0.084126
vt 0.200138 0.388625
vt 0.265819 0.395254
vt 0.387536 0.135135
vt 0.305527 0.056511
vt 0.206710 0.000226
vt 0.197448 0.158761
vt 0.101986 0.230016
vt 0.320904 0.239462
vt 0.240104 0.244070
vt 0.380643 0.344872
vt 0.382924 0.411344
vt 0.064573 0.064814
vt 0.096656 0.016059
vt 0.115545 0.280385
vt 0.185209 0.244070
vt 0.010920 0.534635
vt 0.035768 0.510646
vt 0.080788 0.520059
vt 0.048358 0.538726
vt 0.337645 0.526352
vt 0.290573 0.492804
vt 0.394627 0.511480
vt 0.463289 0.544104
vt 0.187783 0.490008
vt 0.168693 0.467730
vt 0.337581 0.561217
vt 0.523277 0.578447
vt 0.576979 0.600402
vt 0.339387 0.582423
vt 0.425371 0.493126
vt 0.511024 0.537981
vt 0.000226 0.600402
vt 0.047877 0.556264
vt 0.174788 0.514594
vt 0.166247 0.555447
vt 0.163435 0.576174
vt 0.296738 0.469821
vt 0.010920 0.666621
vt 0.048357 0.662530
vt 0.080787 0.681197
vt 0.035768 0.690610
vt 0.337645 0.674903
vt 0.463288 0.657152
vt 0.394626 0.689776
vt 0.290572 0.708451
vt 0.187782 0.711248
vt 0.168693 0.733526
vt 0.337580 0.640039
vt 0.339387 0.618832
vt 0.576979 0.600854
vt 0.523277 0.622809
vt 0.511024 0.663275
vt 0.425370 0.708130
vt 0.000226 0.600854
vt 0.047876 0.644992
vt 0.166246 0.645809
vt 0.174788 0.686662
vt 0.163434 0.625082
vt 0.296738 0.731435
vt 0.010920 0.934007
vt 0.035768 0.910018
vt 0.080788 0.919431
vt 0.048357 0.938098
vt 0.337645 0.925725
vt 0.290573 0.892177
vt 0.394627 0.910852
vt 0.463288 0.943477
vt 0.187783 0.889380
vt 0.168693 0.867102
vt 0.337581 0.960589
vt 0.523277 0.977819
vt 0.576979 0.999774
vt 0.339387 0.981796
vt 0.425370 0.892499
vt 0.511023 0.937353
vt 0.000226 0.999774
vt 0.047876 0.955636
vt 0.174788 0.913966
vt 0.166247 0.954819
vt 0.163434 0.975546
vt 0.296738 0.869193
vt 0.010920 0.799745
vt 0.048357 0.795654
vt 0.080788 0.814321
vt 0.035768 0.823734
vt 0.337645 0.808027
vt 0.463289 0.790275
vt 0.394627 0.822900
vt 0.290573 0.841575
vt 0.187783 0.844372
vt 0.168693 0.866650
vt 0.337581 0.773163
vt 0.339387 0.751956
vt 0.576980 0.733978
vt 0.523277 0.755933
vt 0.511024 0.796399
vt 0.425370 0.841254
vt 0.000226 0.733978
vt 0.047876 0.778116
vt 0.166247 0.778933
vt 0.174788 0.819786
vt 0.163434 0.758205
vt 0.296738 0.864559
vt 0.394070 0.311427
vt 0.418918 0.287438
vt 0.463938 0.296851
vt 0.431508 0.315518
vt 0.720796 0.303145
vt 0.673723 0.269597
vt 0.777777 0.288273
vt 0.846438 0.320897
vt 0.570933 0.266800
vt 0.551843 0.244522
vt 0.720731 0.338009
vt 0.906427 0.355239
vt 0.960129 0.377194
vt 0.722538 0.359216
vt 0.808521 0.269919
vt 0.894173 0.314773
vt 0.383376 0.377194
vt 0.431027 0.333056
vt 0.557938 0.291386
vt 0.549397 0.332239
vt 0.546585 0.352967
vt 0.679888 0.246613
vt 0.398681 0.065993
vt 0.436119 0.061902
vt 0.468549 0.080569
vt 0.423530 0.089982
vt 0.725406 0.074276
vt 0.851050 0.056524
vt 0.782388 0.089148
vt 0.678334 0.107823
vt 0.575544 0.110620
vt 0.556454 0.132898
vt 0.725342 0.039411
vt 0.727148 0.018205
vt 0.964741 0.000226
vt 0.911038 0.022181
vt 0.898785 0.062647
vt 0.813132 0.107502
vt 0.387987 0.000226
vt 0.435638 0.044364
vt 0.554008 0.045181
vt 0.562549 0.086034
vt 0.551196 0.024454
vt 0.684499 0.130807
vn 0.5563 -0.8254 -0.0958
vn 0.2263 -0.6156 0.7549
vn 0.2510 -0.8649 -0.4346
vn -0.1130 -0.9476 -0.2988
vn -0.2503 -0.8038 0.5396
vn 0.0018 -0.3645 -0.9312
vn 0.0076 0.3864 -0.9223
vn 0.4388 -0.3475 -0.8287
vn 0.2403 0.8028 0.5456
vn -0.0660 0.7459 0.6628
vn 0.1348 0.5820 0.8019
vn -0.1561 -0.2000 0.9673
vn -0.3633 -0.4253 -0.8290
vn -0.7644 0.1424 -0.6288
vn -0.1727 -0.1403 -0.9749
vn -0.4431 -0.4253 0.7892
vn -0.8709 0.3635 0.3307
vn -0.7905 -0.6118 0.0302
vn 0.4041 0.3121 -0.8598
vn 0.7368 -0.3789 -0.5600
vn 0.7098 -0.6248 0.3253
vn 0.5950 -0.1836 0.7825
vn 0.7232 -0.3030 0.6206
vn 0.5040 0.7013 -0.5042
vn -0.3867 0.6827 0.6200
vn -0.4228 0.9052 0.0428
vn -0.3362 0.3412 0.8778
vn -0.1537 0.5120 -0.8451
vn -0.2277 0.8081 -0.5433
vn 0.0813 0.9093 -0.4081
vn 0.1294 0.4161 0.9000
vn 0.1803 0.3389 0.9234
vn 0.9663 0.2311 0.1130
vn -0.1751 0.3637 -0.9149
vn -0.2258 -0.9446 -0.2382
vn -0.9296 -0.1843 0.3193
vn -0.6088 -0.3967 0.6871
vn -0.2486 0.4689 0.8475
vn -0.3176 0.7150 0.6228
vn 0.0305 0.8459 0.5325
vn 0.0430 0.3528 0.9347
vn 0.1455 0.4074 0.9016
vn 0.1919 0.6495 0.7357
vn -0.0744 0.3578 0.9308
vn -0.2550 -0.4835 0.8374
vn -0.0301 0.9838 -0.1766
vn 0.1964 0.9646 0.1761
vn 0.9760 0.1088 -0.1885
vn -0.0646 0.4990 -0.8642
vn 0.3753 -0.4634 0.8027
vn 0.4724 -0.4407 0.7633
vn -0.5145 0.4287 -0.7426
vn -0.1343 0.9646 0.2268
vn -0.0617 0.8228 0.5649
vn 0.0383 0.9988 -0.0291
vn 0.1250 0.4961 -0.8592
vn 0.0859 -0.4982 0.8628
vn -0.3176 -0.8969 -0.3079
vn -0.2486 -0.9684 0.0176
vn 0.0305 -0.8841 -0.4664
vn 0.1919 -0.9619 -0.1946
vn 0.1455 -0.9845 0.0980
vn 0.0430 -0.9859 0.1618
vn -0.0744 -0.9850 0.1555
vn -0.0301 -0.3390 -0.9403
vn 0.1964 -0.6348 -0.7473
vn -0.1343 -0.6787 -0.7220
vn 0.0383 -0.4743 -0.8795
vn -0.0617 -0.9007 -0.4301
vn -0.9296 0.3686 -0.0000
vn -0.6088 0.7933 -0.0000
vn -0.2486 0.4995 -0.8299
vn -0.3176 0.1818 -0.9306
vn 0.0305 0.0382 -0.9988
vn 0.0430 0.6331 -0.7729
vn 0.1455 0.5771 -0.8036
vn 0.1919 0.3124 -0.9304
vn -0.0744 0.6272 -0.7753
vn -0.2550 0.9669 0.0000
vn -0.0301 -0.6449 -0.7637
vn 0.1964 -0.3298 -0.9234
vn 0.9760 -0.2177 0.0000
vn -0.0646 -0.9979 -0.0000
vn 0.3753 0.9269 -0.0000
vn 0.4724 0.8814 0.0000
vn -0.5145 -0.8575 -0.0000
vn -0.1343 -0.2859 -0.9488
vn -0.0617 0.0778 -0.9951
vn 0.0383 -0.5246 -0.8505
vn 0.1250 -0.9922 -0.0000
vn 0.0859 0.9963 0.0000
vn -0.3176 0.1818 0.9306
vn -0.2486 0.4995 0.8299
vn 0.0305 0.0382 0.9988
vn 0.1919 0.3124 0.9304
vn 0.1455 0.5771 0.8036
vn 0.0430 0.6331 0.7729
vn -0.0744 0.6272 0.7753
vn -0.0301 -0.6449 0.7637
vn 0.1964 -0.3298 0.9234
vn -0.1343 -0.2859 0.9488
vn 0.0383 -0.5246 0.8505
vn -0.0617 0.0778 0.9951
vn -0.9296 -0.1843 -0.3193
vn -0.6088 -0.3967 -0.6871
vn -0.2486 -0.9684 -0.0176
vn -0.3176 -0.8969 0.3079
vn 0.0305 -0.8841 0.4664
vn 0.0430 -0.9859 -0.1618
vn 0.1455 -0.9845 -0.0980
vn 0.1919 -0.9619 0.1946
vn -0.0744 -0.9850 -0.1555
vn -0.2550 -0.4835 -0.8374
vn -0.0301 -0.3390 0.9403
vn 0.1964 -0.6348 0.7473
vn 0.9760 0.1088 0.1885
vn -0.0646 0.4990 0.8642
vn 0.3753 -0.4634 -0.8027
vn 0.4724 -0.4407 -0.7633
vn -0.5145 0.4287 0.7426
vn -0.1343 -0.6787 0.7220
vn -0.0617 -0.9007 0.4301
vn 0.0383 -0.4743 0.8795
vn 0.1250 0.4961 0.8592
vn 0.0859 -0.4982 -0.8628
vn -0.3176 0.7150 -0.6228
vn -0.2486 0.4689 -0.8475
vn 0.0305 0.8459 -0.5325
vn 0.1919 0.6495 -0.7357
vn 0.1455 0.4074 -0.9016
vn 0.0430 0.3528 -0.9347
vn -0.0744 0.3578 -0.9308
vn -0.0301 0.9838 0.1766
vn 0.1964 0.9646 -0.1761
vn -0.1343 0.9646 -0.2268
vn 0.0383 0.9988 0.0291
vn -0.0617 0.8228 -0.5649
usemtl Default
s 1
f 35/1/1 17/2/2 21/3/3
f 24/4/4 21/3/3 29/5/5
f 1/6/6 30/7/7 2/8/8
f 4/9/9 7/10/10 33/11/11
f 17/2/2 9/12/12 29/5/5
f 28/13/13 15/14/14 16/15/15
f 12/16/16 13/17/17 22/18/18
f 3/19/19 14/20/20 2/8/8
f 25/21/21 5/22/22 35/1/1
f 5/22/22 25/21/21 27/23/23
f 20/24/24 14/20/20 3/19/19
f 5/22/22 27/23/23 4/9/9
f 15/14/14 28/13/13 22/25/18
f 13/26/17 15/14/14 22/25/18
f 13/17/17 10/27/25 11/28/26
f 10/27/25 31/29/27 9/12/12
f 31/29/27 12/16/16 29/5/5
f 9/12/12 31/29/27 29/5/5
f 6/30/28 32/31/29 26/32/30
f 7/10/10 10/27/25 8/33/31
f 17/2/2 8/33/31 9/12/12
f 33/11/11 7/10/10 8/33/31
f 4/9/9 33/11/11 23/34/32
f 19/35/33 20/24/24 26/32/30 4/36/9
f 4/36/9 26/32/30 7/37/10
f 30/7/7 34/38/34 6/30/28
f 1/6/6 34/38/34 30/7/7
f 5/22/22 23/34/32 17/2/2
f 4/9/9 23/34/32 5/22/22
f 3/19/19 2/8/8 30/7/7
f 18/39/35 28/13/13 16/15/15
f 18/39/35 22/25/18 28/13/13
f 35/40/1 1/6/6 2/8/8
f 35/40/1 21/41/3 1/6/6
f 8/33/31 10/27/25 9/12/12
f 7/10/10 11/28/26 10/27/25
f 32/31/29 6/30/28 16/15/15
f 34/38/34 1/6/6 16/15/15
f 16/15/15 15/14/14 32/31/29
f 14/42/20 19/43/33 27/23/23
f 20/24/24 19/35/33 14/20/20
f 25/21/21 14/42/20 27/23/23
f 26/32/30 20/24/24 3/19/19 30/7/7
f 4/9/9 27/23/23 19/43/33
f 14/42/20 25/21/21 35/1/1
f 35/40/1 2/8/8 14/20/20
f 13/17/17 12/16/16 10/27/25
f 11/44/26 15/14/14 13/26/17
f 32/31/29 15/14/14 11/44/26
f 31/29/27 10/27/25 12/16/16
f 6/30/28 34/38/34 16/15/15
f 26/32/30 11/45/26 7/37/10
f 26/32/30 32/31/29 11/45/26
f 21/3/3 17/2/2 29/5/5
f 17/2/2 23/34/32 8/33/31
f 23/34/32 33/11/11 8/33/31
f 30/7/7 6/30/28 26/32/30
f 35/1/1 5/22/22 17/2/2
f 29/5/5 12/16/16 22/18/18 18/46/35
f 16/15/15 1/6/6 24/47/4 18/39/35
f 18/46/35 24/4/4 29/5/5
f 21/41/3 24/47/4 1/6/6
f 59/48/36 53/49/37 37/50/38 40/51/39
f 47/52/40 45/53/41 39/54/42 41/55/43
f 44/56/44 37/50/38 53/49/37 64/57/45
f 42/58/46 38/59/47 54/60/48 66/61/49
f 41/55/43 39/54/42 55/62/50 58/63/51
f 38/59/47 41/55/43 58/63/51 54/60/48
f 42/58/46 47/52/40 41/55/43 38/59/47
f 52/64/52 59/48/36 40/51/39 36/65/53
f 36/65/53 40/51/39 46/66/54 43/67/55
f 43/67/55 46/66/54 47/52/40 42/58/46
f 36/65/53 43/67/55 67/68/56 52/64/52
f 43/67/55 42/58/46 66/61/49 67/68/56
f 39/54/42 45/53/41 65/69/57 55/62/50
f 45/53/41 44/56/44 64/57/45 65/69/57
f 40/51/39 37/50/38 44/56/44 46/66/54
f 46/66/54 44/56/44 45/53/41 47/52/40
f 59/70/36 56/71/58 49/72/59 53/73/37
f 69/74/60 57/75/61 51/76/62 63/77/63
f 62/78/64 64/79/45 53/73/37 49/72/59
f 60/80/65 66/81/49 54/82/48 50/83/66
f 57/75/61 58/84/51 55/85/50 51/76/62
f 50/83/66 54/82/48 58/84/51 57/75/61
f 60/80/65 50/83/66 57/75/61 69/74/60
f 52/86/52 48/87/67 56/71/58 59/70/36
f 48/87/67 61/88/68 68/89/69 56/71/58
f 61/88/68 60/80/65 69/74/60 68/89/69
f 48/87/67 52/86/52 67/90/56 61/88/68
f 61/88/68 67/90/56 66/81/49 60/80/65
f 51/76/62 55/85/50 65/91/57 63/77/63
f 63/77/63 65/91/57 64/79/45 62/78/64
f 56/71/58 68/89/69 62/78/64 49/72/59
f 68/89/69 69/74/60 63/77/63 62/78/64
f 93/92/70 87/93/71 71/94/72 74/95/73
f 81/96/74 79/97/75 73/98/76 75/99/77
f 78/100/78 71/94/72 87/93/71 98/101/79
f 76/102/80 72/103/81 88/104/82 100/105/83
f 75/99/77 73/98/76 89/106/84 92/107/85
f 72/103/81 75/99/77 92/107/85 88/104/82
f 76/102/80 81/96/74 75/99/77 72/103/81
f 86/108/86 93/92/70 74/95/73 70/109/87
f 70/109/87 74/95/73 80/110/88 77/111/89
f 77/111/89 80/110/88 81/96/74 76/102/80
f 70/109/87 77/111/89 101/112/90 86/108/86
f 77/111/89 76/102/80 100/105/83 101/112/90
f 73/98/76 79/97/75 99/113/91 89/106/84
f 79/97/75 78/100/78 98/101/79 99/113/91
f 74/95/73 71/94/72 78/100/78 80/110/88
f 80/110/88 78/100/78 79/97/75 81/96/74
f 93/114/70 90/115/92 83/116/93 87/117/71
f 103/118/94 91/119/95 85/120/96 97/121/97
f 96/122/98 98/123/79 87/117/71 83/116/93
f 94/124/99 100/125/83 88/126/82 84/127/100
f 91/119/95 92/128/85 89/129/84 85/120/96
f 84/127/100 88/126/82 92/128/85 91/119/95
f 94/124/99 84/127/100 91/119/95 103/118/94
f 86/130/86 82/131/101 90/115/92 93/114/70
f 82/131/101 95/132/102 102/133/103 90/115/92
f 95/132/102 94/124/99 103/118/94 102/133/103
f 82/131/101 86/130/86 101/134/90 95/132/102
f 95/132/102 101/134/90 100/125/83 94/124/99
f 85/120/96 89/129/84 99/135/91 97/121/97
f 97/121/97 99/135/91 98/123/79 96/122/98
f 90/115/92 102/133/103 96/122/98 83/116/93
f 102/133/103 103/118/94 97/121/97 96/122/98
f 127/136/104 121/137/105 105/138/106 108/139/107
f 115/140/108 113/141/109 107/142/110 109/143/111
f 112/144/112 105/138/106 121/137/105 132/145/113
f 110/146/114 106/147/115 122/148/116 134/149/117
f 109/143/111 107/142/110 123/150/118 126/151/119
f 106/147/115 109/143/111 126/151/119 122/148/116
f 110/146/114 115/140/108 109/143/111 106/147/115
f 120/152/120 127/136/104 108/139/107 104/153/121
f 104/153/121 108/139/107 114/154/122 111/155/123
f 111/155/123 114/154/122 115/140/108 110/146/114
f 104/153/121 111/155/123 135/156/124 120/152/120
f 111/155/123 110/146/114 134/149/117 135/156/124
f 107/142/110 113/141/109 133/157/125 123/150/118
f 113/141/109 112/144/112 132/145/113 133/157/125
f 108/139/107 105/138/106 112/144/112 114/154/122
f 114/154/122 112/144/112 113/141/109 115/140/108
f 127/158/104 124/159/126 117/160/127 121/161/105
f 137/162/128 125/163/129 119/164/130 131/165/131
f 130/166/132 132/167/113 121/161/105 117/160/127
f 128/168/133 134/169/117 122/170/116 118/171/134
f 125/163/129 126/172/119 123/173/118 119/164/130
f 118/171/134 122/170/116 126/172/119 125/163/129
f 128/168/133 118/171/134 125/163/129 137/162/128
f 120/174/120 116/175/135 124/159/126 127/158/104
f 116/175/135 129/176/136 136/177/137 124/159/126
f 129/176/136 128/168/133 137/162/128 136/177/137
f 116/175/135 120/174/120 135/178/124 129/176/136
f 129/176/136 135/178/124 134/169/117 128/168/133
f 119/164/130 123/173/118 133/179/125 131/165/131
f 131/165/131 133/179/125 132/167/113 130/166/132
f 124/159/126 136/177/137 130/166/132 117/160/127
f 136/177/137 137/162/128 131/165/131 130/166/132
